<?xml version="1.0" standalone="no"?>
<!DOCTYPE svg PUBLIC "-//W3C//DTD SVG 20010904//EN"
 "http://www.w3.org/TR/2001/REC-SVG-20010904/DTD/svg10.dtd">
<svg version="1.0" xmlns="http://www.w3.org/2000/svg"
 width="100.000000pt" height="100.000000pt" viewBox="0 0 100.000000 100.000000"
 preserveAspectRatio="xMidYMid meet">
<metadata>
Created by potrace 1.14, written by Peter Selinger 2001-2017
</metadata>
<g transform="translate(0.000000,100.000000) scale(0.100000,-0.100000)"
fill="#000000" stroke="none">
<path d="M521 846 c-49 -13 -118 -73 -133 -118 -9 -24 -14 -27 -46 -24 -65 5
-132 -39 -152 -100 -6 -18 -19 -36 -29 -39 -10 -3 -26 -14 -36 -25 -10 -11
-32 -21 -49 -21 l-31 -1 30 -8 c20 -5 24 -8 10 -9 -12 -1 -16 -4 -9 -9 6 -4
14 -25 17 -47 7 -47 54 -95 92 -95 32 0 34 -36 5 -73 -35 -44 -20 -77 36 -77
19 0 54 -13 81 -29 75 -46 150 -45 221 3 28 18 54 30 59 25 4 -4 27 -12 50
-17 46 -10 84 2 114 37 8 10 27 19 42 19 42 -1 82 20 101 52 14 25 24 30 59
32 l42 1 -45 7 c-25 4 -36 8 -25 9 l20 2 -20 9 c-11 5 -14 9 -7 9 8 1 5 8 -7
22 -38 42 -38 43 -29 78 14 48 4 97 -27 137 l-26 34 30 0 c33 0 61 22 61 50 0
23 -75 84 -95 76 -9 -3 -15 0 -15 8 0 22 -36 47 -66 45 -16 -1 -45 7 -64 18
-43 26 -101 33 -159 19z"/>
</g>
</svg>
